<mxfile host="app.diagrams.net" modified="2023-03-08T10:21:09.333Z" agent="5.0 (Macintosh; Intel Mac OS X 10_15_7) AppleWebKit/537.36 (KHTML, like Gecko) Chrome/110.0.0.0 Safari/537.36" etag="6Sn14GSfcaKiCa_7C3JR" version="20.5.3" type="github">
  <diagram id="pjDHRfNZM5aiyjW-uGr0" name="Page-1">
    <mxGraphModel dx="971" dy="658" grid="1" gridSize="10" guides="1" tooltips="1" connect="1" arrows="1" fold="1" page="1" pageScale="1" pageWidth="850" pageHeight="1100" math="0" shadow="0">
      <root>
        <mxCell id="0" />
        <mxCell id="1" parent="0" />
        <mxCell id="TyZI83ocCx7kYIztofUv-1" value="" style="rounded=0;whiteSpace=wrap;html=1;" vertex="1" parent="1">
          <mxGeometry x="240" y="210" width="120" height="60" as="geometry" />
        </mxCell>
        <mxCell id="TyZI83ocCx7kYIztofUv-2" value="asdfsfd" style="ellipse;whiteSpace=wrap;html=1;" vertex="1" parent="1">
          <mxGeometry x="360" y="300" width="120" height="80" as="geometry" />
        </mxCell>
        <mxCell id="TyZI83ocCx7kYIztofUv-3" value="hi" style="text;html=1;align=center;verticalAlign=middle;resizable=0;points=[];autosize=1;strokeColor=none;fillColor=none;" vertex="1" parent="1">
          <mxGeometry x="415" y="195" width="30" height="30" as="geometry" />
        </mxCell>
        <mxCell id="TyZI83ocCx7kYIztofUv-4" value="" style="shape=document;whiteSpace=wrap;html=1;boundedLbl=1;" vertex="1" parent="1">
          <mxGeometry x="560" y="195" width="120" height="80" as="geometry" />
        </mxCell>
        <mxCell id="TyZI83ocCx7kYIztofUv-5" value="" style="shape=parallelogram;perimeter=parallelogramPerimeter;whiteSpace=wrap;html=1;fixedSize=1;" vertex="1" parent="1">
          <mxGeometry x="570" y="340" width="120" height="60" as="geometry" />
        </mxCell>
      </root>
    </mxGraphModel>
  </diagram>
</mxfile>
